<?xml version="1.0" encoding="us-ascii" standalone="no"?><svg xmlns="http://www.w3.org/2000/svg" xmlns:xlink="http://www.w3.org/1999/xlink" contentStyleType="text/css" height="681px" preserveAspectRatio="none" style="width:488px;height:681px;background:#F9F9F9;" version="1.1" viewBox="0 0 488 681" width="488px" zoomAndPan="magnify"><defs/><g><rect fill="#F9F9F9" height="681" style="stroke:none;stroke-width:1.0;" width="488" x="0" y="0"/><!--cluster bs4--><g id="cluster_bs4"><path d="M13.5,147 L36.5,147 A5.25,5.25 0 0 1 40,150.5 L47,173.2719 L166.5,173.2719 A3.5,3.5 0 0 1 170,176.7719 L170,246.5 A3.5,3.5 0 0 1 166.5,250 L13.5,250 A3.5,3.5 0 0 1 10,246.5 L10,150.5 A3.5,3.5 0 0 1 13.5,147 " fill="none" style="stroke:#393939;stroke-width:1.0;"/><line style="stroke:#393939;stroke-width:1.0;" x1="10" x2="47" y1="173.2719" y2="173.2719"/><text fill="#000000" font-family="sans-serif" font-size="14" font-weight="bold" lengthAdjust="spacing" textLength="24" x="14" y="165.2399">bs4</text></g><!--cluster requests--><g id="cluster_requests"><path d="M95.5,571 L154.5,571 A5.25,5.25 0 0 1 158,574.5 L165,597.2719 L174.5,597.2719 A3.5,3.5 0 0 1 178,600.7719 L178,670.5 A3.5,3.5 0 0 1 174.5,674 L95.5,674 A3.5,3.5 0 0 1 92,670.5 L92,574.5 A3.5,3.5 0 0 1 95.5,571 " fill="none" style="stroke:#393939;stroke-width:1.0;"/><line style="stroke:#393939;stroke-width:1.0;" x1="92" x2="165" y1="597.2719" y2="597.2719"/><text fill="#000000" font-family="sans-serif" font-size="14" font-weight="bold" lengthAdjust="spacing" textLength="60" x="96" y="589.2399">requests</text></g><!--cluster netwrokX--><g id="cluster_netwrokX"><path d="M315.5,444 L381.5,444 A5.25,5.25 0 0 1 385,447.5 L392,470.2719 L414.5,470.2719 A3.5,3.5 0 0 1 418,473.7719 L418,543.5 A3.5,3.5 0 0 1 414.5,547 L315.5,547 A3.5,3.5 0 0 1 312,543.5 L312,447.5 A3.5,3.5 0 0 1 315.5,444 " fill="none" style="stroke:#393939;stroke-width:1.0;"/><line style="stroke:#393939;stroke-width:1.0;" x1="312" x2="392" y1="470.2719" y2="470.2719"/><text fill="#000000" font-family="sans-serif" font-size="14" font-weight="bold" lengthAdjust="spacing" textLength="67" x="316" y="462.2399">netwrokX</text></g><!--class BeautifulSoup--><g id="elem_BeautifulSoup"><rect fill="#F1F1F1" height="48" id="BeautifulSoup" rx="3.5" ry="3.5" style="stroke:#181818;stroke-width:0.5;" width="127" x="26.5" y="186"/><ellipse cx="41.5" cy="202" fill="#ADD1B2" rx="11" ry="11" style="stroke:#181818;stroke-width:1.0;"/><path d="M41.7344,208.7031 C42.8906,208.7031 43.9844,208.2188 44.8125,207.1875 L43.3906,205.6719 C43,206.2188 42.5313,206.5313 41.9688,206.5313 C40.7813,206.5313 39.7656,205.3906 39.7656,202.1563 C39.7656,199 40.8281,197.8281 41.8594,197.8281 C42.4531,197.8281 42.8281,198.125 43.25,198.625 L44.6719,197.0625 C44,196.3125 43.0313,195.6719 41.75,195.6719 C39.3281,195.6719 37.1875,197.6406 37.1875,202.2656 C37.1875,206.9063 39.3281,208.7031 41.7344,208.7031 Z " fill="#000000"/><text fill="#000000" font-family="sans-serif" font-size="14" lengthAdjust="spacing" textLength="95" x="55.5" y="208.104">BeautifulSoup</text><line style="stroke:#181818;stroke-width:0.5;" x1="27.5" x2="152.5" y1="218" y2="218"/><line style="stroke:#181818;stroke-width:0.5;" x1="27.5" x2="152.5" y1="226" y2="226"/></g><!--class get--><g id="elem_get"><rect fill="#F1F1F1" height="48" id="get" rx="3.5" ry="3.5" style="stroke:#181818;stroke-width:0.5;" width="53" x="108.5" y="610"/><ellipse cx="123.5" cy="626" fill="#ADD1B2" rx="11" ry="11" style="stroke:#181818;stroke-width:1.0;"/><path d="M123.7344,632.7031 C124.8906,632.7031 125.9844,632.2188 126.8125,631.1875 L125.3906,629.6719 C125,630.2188 124.5313,630.5313 123.9688,630.5313 C122.7813,630.5313 121.7656,629.3906 121.7656,626.1563 C121.7656,623 122.8281,621.8281 123.8594,621.8281 C124.4531,621.8281 124.8281,622.125 125.25,622.625 L126.6719,621.0625 C126,620.3125 125.0313,619.6719 123.75,619.6719 C121.3281,619.6719 119.1875,621.6406 119.1875,626.2656 C119.1875,630.9063 121.3281,632.7031 123.7344,632.7031 Z " fill="#000000"/><text fill="#000000" font-family="sans-serif" font-size="14" lengthAdjust="spacing" textLength="21" x="137.5" y="632.104">get</text><line style="stroke:#181818;stroke-width:0.5;" x1="109.5" x2="160.5" y1="642" y2="642"/><line style="stroke:#181818;stroke-width:0.5;" x1="109.5" x2="160.5" y1="650" y2="650"/></g><!--class Graph--><g id="elem_Graph"><rect fill="#F1F1F1" height="48" id="Graph" rx="3.5" ry="3.5" style="stroke:#181818;stroke-width:0.5;" width="73" x="328.5" y="483"/><ellipse cx="343.5" cy="499" fill="#ADD1B2" rx="11" ry="11" style="stroke:#181818;stroke-width:1.0;"/><path d="M343.7344,505.7031 C344.8906,505.7031 345.9844,505.2188 346.8125,504.1875 L345.3906,502.6719 C345,503.2188 344.5313,503.5313 343.9688,503.5313 C342.7813,503.5313 341.7656,502.3906 341.7656,499.1563 C341.7656,496 342.8281,494.8281 343.8594,494.8281 C344.4531,494.8281 344.8281,495.125 345.25,495.625 L346.6719,494.0625 C346,493.3125 345.0313,492.6719 343.75,492.6719 C341.3281,492.6719 339.1875,494.6406 339.1875,499.2656 C339.1875,503.9063 341.3281,505.7031 343.7344,505.7031 Z " fill="#000000"/><text fill="#000000" font-family="sans-serif" font-size="14" lengthAdjust="spacing" textLength="41" x="357.5" y="505.104">Graph</text><line style="stroke:#181818;stroke-width:0.5;" x1="329.5" x2="400.5" y1="515" y2="515"/><line style="stroke:#181818;stroke-width:0.5;" x1="329.5" x2="400.5" y1="523" y2="523"/></g><!--class HandlerBase--><g id="elem_HandlerBase"><rect codeLine="4" fill="#F1F1F1" height="108.8157" id="HandlerBase" rx="3.5" ry="3.5" style="stroke:#181818;stroke-width:0.5;" width="125" x="168.5" y="7"/><ellipse cx="187.1" cy="23" fill="#A9DCDF" rx="11" ry="11" style="stroke:#181818;stroke-width:1.0;"/><path d="M183.225,29 L185.6156,29 L186.1313,25.7656 L188.5375,25.7656 L189.0531,29 L191.475,29 L189.0844,16.375 L185.6156,16.375 L183.225,29 Z M186.4281,23.7969 L186.6469,22.4219 C186.8813,21.1094 187.1156,19.6719 187.2875,18.2969 L187.35,18.2969 C187.5688,19.6719 187.7563,21.1094 187.9906,22.4219 L188.2094,23.7969 L186.4281,23.7969 Z " fill="#000000"/><text fill="#000000" font-family="sans-serif" font-size="14" font-style="italic" lengthAdjust="spacing" textLength="85" x="201.9" y="29.104">HandlerBase</text><line style="stroke:#181818;stroke-width:0.5;" x1="169.5" x2="292.5" y1="39" y2="39"/><ellipse cx="179.5" cy="54.636" fill="none" rx="3" ry="3" style="stroke:#038048;stroke-width:1.0;"/><text fill="#000000" font-family="sans-serif" font-size="14" lengthAdjust="spacing" textLength="48" x="188.5" y="59.2399">waitlist</text><line style="stroke:#181818;stroke-width:0.5;" x1="169.5" x2="292.5" y1="67.2719" y2="67.2719"/><ellipse cx="179.5" cy="82.9079" fill="#84BE84" rx="3" ry="3" style="stroke:#038048;stroke-width:1.0;"/><text fill="#000000" font-family="sans-serif" font-size="14" lengthAdjust="spacing" textLength="99" x="188.5" y="87.5118">update_state()</text><ellipse cx="179.5" cy="103.1798" fill="#84BE84" rx="3" ry="3" style="stroke:#038048;stroke-width:1.0;"/><text fill="#000000" font-family="sans-serif" font-size="14" lengthAdjust="spacing" textLength="73" x="188.5" y="107.7838">pop_next()</text></g><!--class CrawlerBase--><g id="elem_CrawlerBase"><rect codeLine="10" fill="#F1F1F1" height="108.8157" id="CrawlerBase" rx="3.5" ry="3.5" style="stroke:#181818;stroke-width:0.5;" width="114" x="30" y="304"/><ellipse cx="45" cy="320" fill="#A9DCDF" rx="11" ry="11" style="stroke:#181818;stroke-width:1.0;"/><path d="M41.125,326 L43.5156,326 L44.0313,322.7656 L46.4375,322.7656 L46.9531,326 L49.375,326 L46.9844,313.375 L43.5156,313.375 L41.125,326 Z M44.3281,320.7969 L44.5469,319.4219 C44.7813,318.1094 45.0156,316.6719 45.1875,315.2969 L45.25,315.2969 C45.4688,316.6719 45.6563,318.1094 45.8906,319.4219 L46.1094,320.7969 L44.3281,320.7969 Z " fill="#000000"/><text fill="#000000" font-family="sans-serif" font-size="14" font-style="italic" lengthAdjust="spacing" textLength="82" x="59" y="326.104">CrawlerBase</text><line style="stroke:#181818;stroke-width:0.5;" x1="31" x2="143" y1="336" y2="336"/><line style="stroke:#181818;stroke-width:0.5;" x1="31" x2="143" y1="344" y2="344"/><ellipse cx="41" cy="359.636" fill="#84BE84" rx="3" ry="3" style="stroke:#038048;stroke-width:1.0;"/><text fill="#000000" font-family="sans-serif" font-size="14" lengthAdjust="spacing" textLength="76" x="50" y="364.2399">step_next()</text><ellipse cx="41" cy="379.9079" fill="#84BE84" rx="3" ry="3" style="stroke:#038048;stroke-width:1.0;"/><text fill="#000000" font-family="sans-serif" font-size="14" lengthAdjust="spacing" textLength="40" x="50" y="384.5118">start()</text><ellipse cx="41" cy="400.1798" fill="#84BE84" rx="3" ry="3" style="stroke:#038048;stroke-width:1.0;"/><text fill="#000000" font-family="sans-serif" font-size="14" lengthAdjust="spacing" textLength="59" x="50" y="404.7838">get_res()</text></g><!--class Handler--><g id="elem_Handler"><rect codeLine="16" fill="#F1F1F1" height="68.2719" id="Handler" rx="3.5" ry="3.5" style="stroke:#181818;stroke-width:0.5;" width="85" x="188.5" y="176"/><ellipse cx="203.5" cy="192" fill="#ADD1B2" rx="11" ry="11" style="stroke:#181818;stroke-width:1.0;"/><path d="M203.7344,198.7031 C204.8906,198.7031 205.9844,198.2188 206.8125,197.1875 L205.3906,195.6719 C205,196.2188 204.5313,196.5313 203.9688,196.5313 C202.7813,196.5313 201.7656,195.3906 201.7656,192.1563 C201.7656,189 202.8281,187.8281 203.8594,187.8281 C204.4531,187.8281 204.8281,188.125 205.25,188.625 L206.6719,187.0625 C206,186.3125 205.0313,185.6719 203.75,185.6719 C201.3281,185.6719 199.1875,187.6406 199.1875,192.2656 C199.1875,196.9063 201.3281,198.7031 203.7344,198.7031 Z " fill="#000000"/><text fill="#000000" font-family="sans-serif" font-size="14" lengthAdjust="spacing" textLength="53" x="217.5" y="198.104">Handler</text><line style="stroke:#181818;stroke-width:0.5;" x1="189.5" x2="272.5" y1="208" y2="208"/><ellipse cx="199.5" cy="223.636" fill="none" rx="3" ry="3" style="stroke:#038048;stroke-width:1.0;"/><text fill="#000000" font-family="sans-serif" font-size="14" lengthAdjust="spacing" textLength="48" x="208.5" y="228.2399">waitlist</text><line style="stroke:#181818;stroke-width:0.5;" x1="189.5" x2="272.5" y1="236.2719" y2="236.2719"/></g><!--class Crawler--><g id="elem_Crawler"><rect codeLine="20" fill="#F1F1F1" height="68.2719" id="Crawler" rx="3.5" ry="3.5" style="stroke:#181818;stroke-width:0.5;" width="85" x="44.5" y="473"/><ellipse cx="60.85" cy="489" fill="#ADD1B2" rx="11" ry="11" style="stroke:#181818;stroke-width:1.0;"/><path d="M61.0844,495.7031 C62.2406,495.7031 63.3344,495.2188 64.1625,494.1875 L62.7406,492.6719 C62.35,493.2188 61.8813,493.5313 61.3188,493.5313 C60.1313,493.5313 59.1156,492.3906 59.1156,489.1563 C59.1156,486 60.1781,484.8281 61.2094,484.8281 C61.8031,484.8281 62.1781,485.125 62.6,485.625 L64.0219,484.0625 C63.35,483.3125 62.3813,482.6719 61.1,482.6719 C58.6781,482.6719 56.5375,484.6406 56.5375,489.2656 C56.5375,493.9063 58.6781,495.7031 61.0844,495.7031 Z " fill="#000000"/><text fill="#000000" font-family="sans-serif" font-size="14" lengthAdjust="spacing" textLength="50" x="75.15" y="495.104">Crawler</text><line style="stroke:#181818;stroke-width:0.5;" x1="45.5" x2="128.5" y1="505" y2="505"/><line style="stroke:#181818;stroke-width:0.5;" x1="45.5" x2="128.5" y1="513" y2="513"/><ellipse cx="55.5" cy="528.636" fill="#84BE84" rx="3" ry="3" style="stroke:#038048;stroke-width:1.0;"/><text fill="#000000" font-family="sans-serif" font-size="14" lengthAdjust="spacing" textLength="59" x="64.5" y="533.2399">get_res()</text></g><!--class URLScreen--><g id="elem_URLScreen"><rect codeLine="25" fill="#F1F1F1" height="48" id="URLScreen" rx="3.5" ry="3.5" style="stroke:#181818;stroke-width:0.5;" width="104" x="179" y="334.5"/><ellipse cx="194" cy="350.5" fill="#ADD1B2" rx="11" ry="11" style="stroke:#181818;stroke-width:1.0;"/><path d="M194.2344,357.2031 C195.3906,357.2031 196.4844,356.7188 197.3125,355.6875 L195.8906,354.1719 C195.5,354.7188 195.0313,355.0313 194.4688,355.0313 C193.2813,355.0313 192.2656,353.8906 192.2656,350.6563 C192.2656,347.5 193.3281,346.3281 194.3594,346.3281 C194.9531,346.3281 195.3281,346.625 195.75,347.125 L197.1719,345.5625 C196.5,344.8125 195.5313,344.1719 194.25,344.1719 C191.8281,344.1719 189.6875,346.1406 189.6875,350.7656 C189.6875,355.4063 191.8281,357.2031 194.2344,357.2031 Z " fill="#000000"/><text fill="#000000" font-family="sans-serif" font-size="14" lengthAdjust="spacing" textLength="72" x="208" y="356.604">URLScreen</text><line style="stroke:#181818;stroke-width:0.5;" x1="180" x2="282" y1="366.5" y2="366.5"/><line style="stroke:#181818;stroke-width:0.5;" x1="180" x2="282" y1="374.5" y2="374.5"/></g><!--class Href--><g id="elem_Href"><rect codeLine="27" fill="#F1F1F1" height="48" id="Href" rx="3.5" ry="3.5" style="stroke:#181818;stroke-width:0.5;" width="60" x="329" y="37.5"/><ellipse cx="344" cy="53.5" fill="#ADD1B2" rx="11" ry="11" style="stroke:#181818;stroke-width:1.0;"/><path d="M344.2344,60.2031 C345.3906,60.2031 346.4844,59.7188 347.3125,58.6875 L345.8906,57.1719 C345.5,57.7188 345.0313,58.0313 344.4688,58.0313 C343.2813,58.0313 342.2656,56.8906 342.2656,53.6563 C342.2656,50.5 343.3281,49.3281 344.3594,49.3281 C344.9531,49.3281 345.3281,49.625 345.75,50.125 L347.1719,48.5625 C346.5,47.8125 345.5313,47.1719 344.25,47.1719 C341.8281,47.1719 339.6875,49.1406 339.6875,53.7656 C339.6875,58.4063 341.8281,60.2031 344.2344,60.2031 Z " fill="#000000"/><text fill="#000000" font-family="sans-serif" font-size="14" lengthAdjust="spacing" textLength="28" x="358" y="59.604">Href</text><line style="stroke:#181818;stroke-width:0.5;" x1="330" x2="388" y1="69.5" y2="69.5"/><line style="stroke:#181818;stroke-width:0.5;" x1="330" x2="388" y1="77.5" y2="77.5"/></g><!--class Site--><g id="elem_Site"><rect codeLine="29" fill="#F1F1F1" height="48" id="Site" rx="3.5" ry="3.5" style="stroke:#181818;stroke-width:0.5;" width="57" x="424.5" y="37.5"/><ellipse cx="439.5" cy="53.5" fill="#ADD1B2" rx="11" ry="11" style="stroke:#181818;stroke-width:1.0;"/><path d="M439.7344,60.2031 C440.8906,60.2031 441.9844,59.7188 442.8125,58.6875 L441.3906,57.1719 C441,57.7188 440.5313,58.0313 439.9688,58.0313 C438.7813,58.0313 437.7656,56.8906 437.7656,53.6563 C437.7656,50.5 438.8281,49.3281 439.8594,49.3281 C440.4531,49.3281 440.8281,49.625 441.25,50.125 L442.6719,48.5625 C442,47.8125 441.0313,47.1719 439.75,47.1719 C437.3281,47.1719 435.1875,49.1406 435.1875,53.7656 C435.1875,58.4063 437.3281,60.2031 439.7344,60.2031 Z " fill="#000000"/><text fill="#000000" font-family="sans-serif" font-size="14" lengthAdjust="spacing" textLength="25" x="453.5" y="59.604">Site</text><line style="stroke:#181818;stroke-width:0.5;" x1="425.5" x2="480.5" y1="69.5" y2="69.5"/><line style="stroke:#181818;stroke-width:0.5;" x1="425.5" x2="480.5" y1="77.5" y2="77.5"/></g><!--class Inventory--><g id="elem_Inventory"><rect fill="#F1F1F1" height="48" id="Inventory" rx="3.5" ry="3.5" style="stroke:#181818;stroke-width:0.5;" width="94" x="318" y="334.5"/><ellipse cx="333" cy="350.5" fill="#ADD1B2" rx="11" ry="11" style="stroke:#181818;stroke-width:1.0;"/><path d="M333.2344,357.2031 C334.3906,357.2031 335.4844,356.7188 336.3125,355.6875 L334.8906,354.1719 C334.5,354.7188 334.0313,355.0313 333.4688,355.0313 C332.2813,355.0313 331.2656,353.8906 331.2656,350.6563 C331.2656,347.5 332.3281,346.3281 333.3594,346.3281 C333.9531,346.3281 334.3281,346.625 334.75,347.125 L336.1719,345.5625 C335.5,344.8125 334.5313,344.1719 333.25,344.1719 C330.8281,344.1719 328.6875,346.1406 328.6875,350.7656 C328.6875,355.4063 330.8281,357.2031 333.2344,357.2031 Z " fill="#000000"/><text fill="#000000" font-family="sans-serif" font-size="14" lengthAdjust="spacing" textLength="62" x="347" y="356.604">Inventory</text><line style="stroke:#181818;stroke-width:0.5;" x1="319" x2="411" y1="366.5" y2="366.5"/><line style="stroke:#181818;stroke-width:0.5;" x1="319" x2="411" y1="374.5" y2="374.5"/></g><!--class Hook--><g id="elem_Hook"><rect fill="#F1F1F1" height="48" id="Hook" rx="3.5" ry="3.5" style="stroke:#181818;stroke-width:0.5;" width="66" x="7" y="610"/><ellipse cx="22" cy="626" fill="#ADD1B2" rx="11" ry="11" style="stroke:#181818;stroke-width:1.0;"/><path d="M22.2344,632.7031 C23.3906,632.7031 24.4844,632.2188 25.3125,631.1875 L23.8906,629.6719 C23.5,630.2188 23.0313,630.5313 22.4688,630.5313 C21.2813,630.5313 20.2656,629.3906 20.2656,626.1563 C20.2656,623 21.3281,621.8281 22.3594,621.8281 C22.9531,621.8281 23.3281,622.125 23.75,622.625 L25.1719,621.0625 C24.5,620.3125 23.5313,619.6719 22.25,619.6719 C19.8281,619.6719 17.6875,621.6406 17.6875,626.2656 C17.6875,630.9063 19.8281,632.7031 22.2344,632.7031 Z " fill="#000000"/><text fill="#000000" font-family="sans-serif" font-size="14" lengthAdjust="spacing" textLength="34" x="36" y="632.104">Hook</text><line style="stroke:#181818;stroke-width:0.5;" x1="8" x2="72" y1="642" y2="642"/><line style="stroke:#181818;stroke-width:0.5;" x1="8" x2="72" y1="650" y2="650"/></g><!--reverse link CrawlerBase to Crawler--><g id="link_CrawlerBase_Crawler"><path codeLine="31" d="M87,433.28 C87,447.11 87,460.92 87,472.73 " fill="none" id="CrawlerBase-backto-Crawler" style="stroke:#191919;stroke-width:1.0;"/><polygon fill="none" points="80,433.22,87,413.22,94,433.22,80,433.22" style="stroke:#191919;stroke-width:1.0;"/></g><!--reverse link HandlerBase to Handler--><g id="link_HandlerBase_Handler"><path codeLine="32" d="M231,136.28 C231,150.11 231,163.92 231,175.73 " fill="none" id="HandlerBase-backto-Handler" style="stroke:#191919;stroke-width:1.0;"/><polygon fill="none" points="224,136.22,231,116.22,238,136.22,224,136.22" style="stroke:#191919;stroke-width:1.0;"/></g><!--reverse link Handler to CrawlerBase--><g id="link_Handler_CrawlerBase"><path codeLine="34" d="M189.03,253.7 C173.57,269.43 155.87,287.43 139.6,303.99 " fill="none" id="Handler-backto-CrawlerBase" style="stroke:#191919;stroke-width:1.0;"/><polygon fill="#191919" points="198.32,244.24,191.2613,245.7146,189.9075,252.7975,196.9663,251.3229,198.32,244.24" style="stroke:#191919;stroke-width:1.0;"/><text fill="#000000" font-family="sans-serif" font-size="13" lengthAdjust="spacing" textLength="7" x="184.6493" y="267.3433">1</text></g><!--reverse link Handler to URLScreen--><g id="link_Handler_URLScreen"><path codeLine="35" d="M231,257.49 C231,283.13 231,313.85 231,334.42 " fill="none" id="Handler-backto-URLScreen" style="stroke:#191919;stroke-width:1.0;"/><polygon fill="#191919" points="231,244.24,227,250.24,231,256.24,235,250.24,231,244.24" style="stroke:#191919;stroke-width:1.0;"/><text fill="#000000" font-family="sans-serif" font-size="13" lengthAdjust="spacing" textLength="7" x="223.3547" y="267.3433">1</text><text fill="#000000" font-family="sans-serif" font-size="13" lengthAdjust="spacing" textLength="7" x="223.0594" y="322.7205">1</text></g><!--reverse link Handler to Inventory--><g id="link_Handler_Inventory"><path codeLine="36" d="M270.31,253.98 C294.37,280.28 324.21,312.9 343.89,334.42 " fill="none" id="Handler-backto-Inventory" style="stroke:#191919;stroke-width:1.0;"/><polygon fill="#191919" points="261.41,244.24,262.51,251.3667,269.5115,253.0924,268.4116,245.9657,261.41,244.24" style="stroke:#191919;stroke-width:1.0;"/><text fill="#000000" font-family="sans-serif" font-size="13" lengthAdjust="spacing" textLength="7" x="330.2761" y="322.7205">1</text></g><!--reverse link BeautifulSoup to Handler--><g id="link_BeautifulSoup_Handler"><path codeLine="37" d="M158.78,210 C168.64,210 178.51,210 188.38,210 " fill="none" id="BeautifulSoup-backto-Handler" style="stroke:#191919;stroke-width:1.0;"/><polygon fill="#191919" points="153.62,210,162.62,214,158.62,210,162.62,206,153.62,210" style="stroke:#191919;stroke-width:1.0;"/></g><!--link Crawler to Hook--><g id="link_Crawler_Hook"><path codeLine="38" d="M74.53,541.17 C67.07,561 57.7,585.93 50.6,604.81 " fill="none" id="Crawler-to-Hook" style="stroke:#191919;stroke-width:1.0;"/><polygon fill="#191919" points="48.66,609.97,55.5654,602.9475,50.4156,605.2884,48.0748,600.1385,48.66,609.97" style="stroke:#191919;stroke-width:1.0;"/></g><!--link Crawler to get--><g id="link_Crawler_get"><path codeLine="39" d="M99.74,541.17 C107.42,561.17 117.09,586.36 124.36,605.29 " fill="none" id="Crawler-to-get" style="stroke:#191919;stroke-width:1.0;"/><polygon fill="#191919" points="126.15,609.97,126.6465,600.1337,124.3522,605.3044,119.1815,603.0101,126.15,609.97" style="stroke:#191919;stroke-width:1.0;"/></g><!--link Inventory to Graph--><g id="link_Inventory_Graph"><path codeLine="40" d="M365,396 C365,418.54 365,447.35 365,469.83 " fill="none" id="Inventory-Graph" style="stroke:#191919;stroke-width:1.0;"/><polygon fill="none" points="365,382.71,361,388.71,365,394.71,369,388.71,365,382.71" style="stroke:#191919;stroke-width:1.0;"/><polygon fill="#191919" points="365,482.9,369,473.9,365,477.9,361,473.9,365,482.9" style="stroke:#191919;stroke-width:1.0;"/><line style="stroke:#191919;stroke-width:1.0;" x1="365" x2="365" y1="477.9" y2="469.9"/></g><!--SRC=[PP31JiCm343l_egm4mob4X97n64S618dAYHkbTUwh5gN5Dkb8E3VIUdIPUAIs7xsa-KptTAUp1vP070ZobYgMQEhMk8L2falCEQoxofKAaJ3UtunLZhV5Ou-TCe6RBHjHE4diTmn3YSMKKg7WeqFuIjfmIGX2OAoHP6umpIP-YTya4yu6JSGEvwV7lEIYTniPAfZd3TA0Ec6Dz_MHYka1_W3Xm94OXPN2xCyJeoT_zZu7xU8T6ahFxY9FhXtSkhvSwQsfLhjhTd8TROYxBMf-pRtVHUNDJRGjVUxamBJMq-YaeLJm6mrVcIET62_Uydk6Rij_080]--></g></svg>