<?xml version="1.0" encoding="us-ascii" standalone="no"?><svg xmlns="http://www.w3.org/2000/svg" xmlns:xlink="http://www.w3.org/1999/xlink" contentStyleType="text/css" height="836px" preserveAspectRatio="none" style="width:1076px;height:836px;background:#F9F9F9;" version="1.1" viewBox="0 0 1076 836" width="1076px" zoomAndPan="magnify"><defs/><g><rect fill="#F9F9F9" height="836" style="stroke:none;stroke-width:1.0;" width="1076" x="0" y="0"/><rect fill="#DDDDDD" height="824.5839" rx="3.5" ry="3.5" style="stroke:#181818;stroke-width:0.5;" width="44" x="135" y="6"/><rect fill="#ADD8E6" height="824.5839" rx="3.5" ry="3.5" style="stroke:#181818;stroke-width:0.5;" width="197" x="359.5" y="6"/><text fill="#000000" font-family="sans-serif" font-size="13" font-weight="bold" lengthAdjust="spacing" textLength="191" x="362.5" y="21.08">server @http://localhost:3000</text><rect fill="#FFFFE0" height="824.5839" rx="3.5" ry="3.5" style="stroke:#181818;stroke-width:0.5;" width="197" x="558.5" y="6"/><text fill="#000000" font-family="sans-serif" font-size="13" font-weight="bold" lengthAdjust="spacing" textLength="191" x="561.5" y="21.08">server @http://localhost:8000</text><rect fill="#DDDDDD" height="824.5839" rx="3.5" ry="3.5" style="stroke:#181818;stroke-width:0.5;" width="159" x="909.5" y="6"/><text fill="#000000" font-family="sans-serif" font-size="13" font-weight="bold" lengthAdjust="spacing" textLength="153" x="912.5" y="21.08">server @https://math.jp</text><rect fill="#FFFFFF" height="638.04" style="stroke:#393939;stroke-width:1.0;" width="10" x="652" y="100.2719"/><rect fill="none" height="306.4479" rx="3.5" ry="3.5" style="stroke:#393939;stroke-width:1.0;" width="433" x="614.5" y="199.9199"/><rect fill="none" height="179.048" rx="3.5" ry="3.5" style="stroke:#393939;stroke-width:1.0;" width="413" x="624.5" y="274.4959"/><line style="stroke:#393939;stroke-width:0.5;stroke-dasharray:5.0,5.0;" x1="157" x2="157" y1="90.2719" y2="747.3119"/><line style="stroke:#393939;stroke-width:0.5;stroke-dasharray:5.0,5.0;" x1="457.5" x2="457.5" y1="90.2719" y2="747.3119"/><line style="stroke:#393939;stroke-width:0.5;stroke-dasharray:5.0,5.0;" x1="656.5" x2="656.5" y1="90.2719" y2="747.3119"/><line style="stroke:#393939;stroke-width:0.5;stroke-dasharray:5.0,5.0;" x1="988.5" x2="988.5" y1="90.2719" y2="747.3119"/><text fill="#191919" font-family="sans-serif" font-size="14" lengthAdjust="spacing" textLength="30" x="139" y="86.2399">User</text><ellipse cx="157" cy="18.5" fill="#191919" rx="8" ry="8" style="stroke:#191919;stroke-width:0.5;"/><path d="M157,26.5 L157,53.5 M144,34.5 L170,34.5 M157,53.5 L144,68.5 M157,53.5 L170,68.5 " fill="none" style="stroke:#191919;stroke-width:0.5;"/><text fill="#191919" font-family="sans-serif" font-size="14" lengthAdjust="spacing" textLength="30" x="139" y="762.5519">User</text><ellipse cx="157" cy="775.0839" fill="#191919" rx="8" ry="8" style="stroke:#191919;stroke-width:0.5;"/><path d="M157,783.0839 L157,810.0839 M144,791.0839 L170,791.0839 M157,810.0839 L144,825.0839 M157,810.0839 L170,825.0839 " fill="none" style="stroke:#191919;stroke-width:0.5;"/><rect fill="#E55756" height="34.2719" rx="3.5" ry="3.5" style="stroke:#191919;stroke-width:1.5;" width="95" x="410.5" y="55"/><text fill="#F9F9F9" font-family="sans-serif" font-size="14" lengthAdjust="spacing" textLength="81" x="417.5" y="78.2399">chex.reacter</text><rect fill="#E55756" height="34.2719" rx="3.5" ry="3.5" style="stroke:#191919;stroke-width:1.5;" width="95" x="410.5" y="746.3119"/><text fill="#F9F9F9" font-family="sans-serif" font-size="14" lengthAdjust="spacing" textLength="81" x="417.5" y="769.5519">chex.reacter</text><rect fill="#E55756" height="34.2719" rx="3.5" ry="3.5" style="stroke:#191919;stroke-width:1.5;" width="45" x="634.5" y="55"/><text fill="#F9F9F9" font-family="sans-serif" font-size="14" lengthAdjust="spacing" textLength="31" x="641.5" y="78.2399">chex</text><rect fill="#E55756" height="34.2719" rx="3.5" ry="3.5" style="stroke:#191919;stroke-width:1.5;" width="45" x="634.5" y="746.3119"/><text fill="#F9F9F9" font-family="sans-serif" font-size="14" lengthAdjust="spacing" textLength="31" x="641.5" y="769.5519">chex</text><text fill="#191919" font-family="sans-serif" font-size="14" lengthAdjust="spacing" textLength="71" x="950.5" y="86.2399">Mathpedia</text><ellipse cx="989" cy="54" fill="#EFBABC" rx="12" ry="12" style="stroke:#191919;stroke-width:0.5;"/><line style="stroke:#191919;stroke-width:0.5;" x1="977" x2="1001" y1="68" y2="68"/><text fill="#191919" font-family="sans-serif" font-size="14" lengthAdjust="spacing" textLength="71" x="950.5" y="762.5519">Mathpedia</text><ellipse cx="989" cy="782.5839" fill="#EFBABC" rx="12" ry="12" style="stroke:#191919;stroke-width:0.5;"/><line style="stroke:#191919;stroke-width:0.5;" x1="977" x2="1001" y1="796.5839" y2="796.5839"/><rect fill="#FFFFFF" height="638.04" style="stroke:#393939;stroke-width:1.0;" width="10" x="652" y="100.2719"/><rect fill="#EEEEEE" height="3" rx="3.5" ry="3.5" style="stroke:#EEEEEE;stroke-width:1.0;" width="1069.5" x="0" y="122.6839"/><line style="stroke:#191919;stroke-width:0.5;" x1="0" x2="1069.5" y1="122.6839" y2="122.6839"/><line style="stroke:#191919;stroke-width:0.5;" x1="0" x2="1069.5" y1="125.6839" y2="125.6839"/><rect fill="#EEEEEE" height="26.824" rx="3.5" ry="3.5" style="stroke:#191919;stroke-width:1.0;" width="126" x="471.75" y="110.2719"/><text fill="#191919" font-family="sans-serif" font-size="13" font-weight="bold" lengthAdjust="spacing" textLength="109" x="477.75" y="129.3519">Crawling by chex</text><line style="stroke:#191919;stroke-width:1.0;stroke-dasharray:2.0,2.0;" x1="662" x2="704" y1="171.9199" y2="171.9199"/><line style="stroke:#191919;stroke-width:1.0;stroke-dasharray:2.0,2.0;" x1="704" x2="704" y1="171.9199" y2="184.9199"/><line style="stroke:#191919;stroke-width:1.0;stroke-dasharray:2.0,2.0;" x1="663" x2="704" y1="184.9199" y2="184.9199"/><polygon fill="#191919" points="673,180.9199,663,184.9199,673,188.9199,669,184.9199" style="stroke:#191919;stroke-width:1.0;"/><text fill="#000000" font-family="sans-serif" font-size="13" lengthAdjust="spacing" textLength="179" x="669" y="166.1759">load index.json and init index</text><path d="M618,199.9199 L687.5,199.9199 L687.5,210.744 L677.5,220.744 L614.5,220.744 L614.5,203.4199 A3.5,3.5 0 0 1 618,199.9199 " fill="#EEEEEE" style="stroke:#393939;stroke-width:1.5;"/><rect fill="none" height="306.4479" rx="3.5" ry="3.5" style="stroke:#393939;stroke-width:1.0;" width="433" x="614.5" y="199.9199"/><text fill="#191919" font-family="sans-serif" font-size="13" font-weight="bold" lengthAdjust="spacing" textLength="28" x="629.5" y="216">loop</text><text fill="#393939" font-family="sans-serif" font-size="11" font-weight="bold" lengthAdjust="spacing" textLength="72" x="702.5" y="214.6798">[many times]</text><line style="stroke:#191919;stroke-width:1.0;stroke-dasharray:2.0,2.0;" x1="662" x2="704" y1="246.4959" y2="246.4959"/><line style="stroke:#191919;stroke-width:1.0;stroke-dasharray:2.0,2.0;" x1="704" x2="704" y1="246.4959" y2="259.4959"/><line style="stroke:#191919;stroke-width:1.0;stroke-dasharray:2.0,2.0;" x1="663" x2="704" y1="259.4959" y2="259.4959"/><polygon fill="#191919" points="673,255.4959,663,259.4959,673,263.4959,669,259.4959" style="stroke:#191919;stroke-width:1.0;"/><text fill="#000000" font-family="sans-serif" font-size="13" lengthAdjust="spacing" textLength="79" x="669" y="240.7519">init footprint</text><path d="M628,274.4959 L697.5,274.4959 L697.5,285.3199 L687.5,295.3199 L624.5,295.3199 L624.5,277.9959 A3.5,3.5 0 0 1 628,274.4959 " fill="#EEEEEE" style="stroke:#393939;stroke-width:1.5;"/><rect fill="none" height="179.048" rx="3.5" ry="3.5" style="stroke:#393939;stroke-width:1.0;" width="413" x="624.5" y="274.4959"/><text fill="#191919" font-family="sans-serif" font-size="13" font-weight="bold" lengthAdjust="spacing" textLength="28" x="639.5" y="290.5759">loop</text><text fill="#393939" font-family="sans-serif" font-size="11" font-weight="bold" lengthAdjust="spacing" textLength="72" x="712.5" y="289.2558">[many times]</text><polygon fill="#191919" points="977,317.0718,987,321.0718,977,325.0718,981,321.0718" style="stroke:#191919;stroke-width:1.0;"/><line style="stroke:#191919;stroke-width:1.0;stroke-dasharray:2.0,2.0;" x1="662" x2="983" y1="321.0718" y2="321.0718"/><text fill="#000000" font-family="sans-serif" font-size="13" lengthAdjust="spacing" textLength="78" x="669" y="315.3278">page request</text><polygon fill="#191919" points="673,349.8958,663,353.8958,673,357.8958,669,353.8958" style="stroke:#191919;stroke-width:1.0;"/><line style="stroke:#191919;stroke-width:1.0;stroke-dasharray:2.0,2.0;" x1="667" x2="988" y1="353.8958" y2="353.8958"/><text fill="#000000" font-family="sans-serif" font-size="13" lengthAdjust="spacing" textLength="29" x="679" y="348.1518">html</text><line style="stroke:#191919;stroke-width:1.0;stroke-dasharray:2.0,2.0;" x1="662" x2="704" y1="386.7198" y2="386.7198"/><line style="stroke:#191919;stroke-width:1.0;stroke-dasharray:2.0,2.0;" x1="704" x2="704" y1="386.7198" y2="399.7198"/><line style="stroke:#191919;stroke-width:1.0;stroke-dasharray:2.0,2.0;" x1="663" x2="704" y1="399.7198" y2="399.7198"/><polygon fill="#191919" points="673,395.7198,663,399.7198,673,403.7198,669,399.7198" style="stroke:#191919;stroke-width:1.0;"/><text fill="#000000" font-family="sans-serif" font-size="13" lengthAdjust="spacing" textLength="143" x="669" y="380.9758">update footprint&amp;index</text><line style="stroke:#191919;stroke-width:1.0;stroke-dasharray:2.0,2.0;" x1="662" x2="704" y1="432.5438" y2="432.5438"/><line style="stroke:#191919;stroke-width:1.0;stroke-dasharray:2.0,2.0;" x1="704" x2="704" y1="432.5438" y2="445.5438"/><line style="stroke:#191919;stroke-width:1.0;stroke-dasharray:2.0,2.0;" x1="663" x2="704" y1="445.5438" y2="445.5438"/><polygon fill="#191919" points="673,441.5438,663,445.5438,673,449.5438,669,445.5438" style="stroke:#191919;stroke-width:1.0;"/><text fill="#000000" font-family="sans-serif" font-size="13" lengthAdjust="spacing" textLength="199" x="669" y="426.7998">parse html &amp; get next target page</text><line style="stroke:#191919;stroke-width:1.0;stroke-dasharray:2.0,2.0;" x1="662" x2="704" y1="485.3678" y2="485.3678"/><line style="stroke:#191919;stroke-width:1.0;stroke-dasharray:2.0,2.0;" x1="704" x2="704" y1="485.3678" y2="498.3678"/><line style="stroke:#191919;stroke-width:1.0;stroke-dasharray:2.0,2.0;" x1="663" x2="704" y1="498.3678" y2="498.3678"/><polygon fill="#191919" points="673,494.3678,663,498.3678,673,502.3678,669,498.3678" style="stroke:#191919;stroke-width:1.0;"/><text fill="#000000" font-family="sans-serif" font-size="13" lengthAdjust="spacing" textLength="196" x="669" y="479.6238">dump footprint.json&amp;index.json</text><rect fill="#EEEEEE" height="3" rx="3.5" ry="3.5" style="stroke:#EEEEEE;stroke-width:1.0;" width="1069.5" x="0" y="535.7798"/><line style="stroke:#191919;stroke-width:0.5;" x1="0" x2="1069.5" y1="535.7798" y2="535.7798"/><line style="stroke:#191919;stroke-width:0.5;" x1="0" x2="1069.5" y1="538.7798" y2="538.7798"/><rect fill="#EEEEEE" height="26.824" rx="3.5" ry="3.5" style="stroke:#191919;stroke-width:1.0;" width="202" x="433.75" y="523.3678"/><text fill="#191919" font-family="sans-serif" font-size="13" font-weight="bold" lengthAdjust="spacing" textLength="185" x="439.75" y="542.4479">Visualization by chex.reacter</text><polygon fill="#191919" points="446,581.0159,456,585.0159,446,589.0159,450,585.0159" style="stroke:#191919;stroke-width:1.0;"/><line style="stroke:#191919;stroke-width:1.0;stroke-dasharray:2.0,2.0;" x1="157" x2="452" y1="585.0159" y2="585.0159"/><text fill="#000000" font-family="sans-serif" font-size="13" lengthAdjust="spacing" textLength="230" x="164" y="579.2719">access to localhost:3000 with browser</text><polygon fill="#191919" points="168,613.8399,158,617.8399,168,621.8399,164,617.8399" style="stroke:#191919;stroke-width:1.0;"/><line style="stroke:#191919;stroke-width:1.0;stroke-dasharray:2.0,2.0;" x1="162" x2="457" y1="617.8399" y2="617.8399"/><text fill="#000000" font-family="sans-serif" font-size="13" lengthAdjust="spacing" textLength="98" x="174" y="612.0959">return react app</text><polygon fill="#191919" points="640,646.6639,650,650.6639,640,654.6639,644,650.6639" style="stroke:#191919;stroke-width:1.0;"/><line style="stroke:#191919;stroke-width:1.0;stroke-dasharray:2.0,2.0;" x1="157" x2="646" y1="650.6639" y2="650.6639"/><text fill="#000000" font-family="sans-serif" font-size="13" lengthAdjust="spacing" textLength="69" x="164" y="644.9199">API request</text><polygon fill="#191919" points="168,679.4879,158,683.4879,168,687.4879,164,683.4879" style="stroke:#191919;stroke-width:1.0;"/><line style="stroke:#191919;stroke-width:1.0;stroke-dasharray:2.0,2.0;" x1="162" x2="651" y1="683.4879" y2="683.4879"/><text fill="#000000" font-family="sans-serif" font-size="13" lengthAdjust="spacing" textLength="172" x="174" y="677.7439">return json data about index</text><line style="stroke:#191919;stroke-width:1.0;stroke-dasharray:2.0,2.0;" x1="115" x2="157" y1="716.3119" y2="716.3119"/><line style="stroke:#191919;stroke-width:1.0;stroke-dasharray:2.0,2.0;" x1="115" x2="115" y1="716.3119" y2="729.3119"/><line style="stroke:#191919;stroke-width:1.0;stroke-dasharray:2.0,2.0;" x1="115" x2="156" y1="729.3119" y2="729.3119"/><polygon fill="#191919" points="148,725.3119,158,729.3119,148,733.3119,152,729.3119" style="stroke:#191919;stroke-width:1.0;"/><text fill="#000000" font-family="sans-serif" font-size="13" lengthAdjust="spacing" textLength="143" x="14" y="710.5679">Network Graph drawing</text><!--SRC=[XLB1ZjGm3BtdAyoiDBVPxS85AWR1xW4X0U824aTFQwPPqYGaxdQ6hyT9EkqEkuXJK_kzP_lPpxYZdg3749NQkGEi8eLx2l2sO_RrrPLn3PhEHQvVLbMrWekFUj_nTpB6ZSfZODreZvQXwUW06ClNXLOqNbMWoBOWkl_HVl50-yOCz4ZvCX0sB5ofS7gM8i-hinfASYx0rrYmGvo1rzM_cudIJO_SNTxvbQ1Oyn4-oR-dLcFIISbPPn5IQhk5su2ZqNOFksEPVhjLgGrzZqmved9uitbJyZKOXoresyfWTz5PG9j-DPUOKiOvBpNj4LZt51N0tmeP_SCvza5R5i1ZoWDIRhy6ZtiI-tuD57a1lDviJe2EUtFEdCeDlat3p0NNfT6deBAwI5a9rh0d1ai71iQGtga3OIN_KiDF3DOElL_gP7lMYrDgPYRdl-aueD6_aRMOEDa_dqfQGzv_KZy5Qy2ceHY17PpV7unQFDW5Dmgd49Cp2p4G3y6M0A3tY_ZK-hil7sPtP_wKcyXvssAb7DNE3QTzp-3ygE4pyUZ2JtWVq7VGodt9UQa_]--></g></svg>